#!OML:ASF F:\twosubjects\two\wednesday\Session 1\rory1.ASF
:FULLY-SPECIFIED
:DEGREES
804
root 8.57315 18.8417 9.56031 -176.194 2.92849 177.792
lowerback -2.0065 1.12519 -3.43069
upperback 0.0101937 1.63194 -1.23877
thorax 1.07663 0.815958 0.698458
lowerneck -11.9046 -4.54435 -5.77226
upperneck 19.7621 -8.40307 10.2476
head 8.81015 -3.78719 3.41452
rclavicle -1.88224e-014 -2.38542e-015
rhumerus 3.52395 5.46782 -34.445
rradius 110.525
rwrist 10.3592
rhand -25.9903 50.8398
rfingers 7.12502
rthumb 0.555146 20.8608
lclavicle -1.88224e-014 -2.38542e-015
lhumerus 12.5967 -9.23907 32.2694
lradius 109.14
lwrist -6.21863
lhand -30.378 12.1516
lfingers 7.12502
lthumb -3.68248 42.0995
rfemur -1.5641 13.291 12.7416
rtibia 13.5064
rfoot -8.63464 -17.8458
rtoes 5.93605
lfemur 2.2682 -4.18065 -19.2073
ltibia 5.67434
lfoot -9.57191 9.37308
ltoes -11.7292
805
root 8.57851 18.8427 9.55932 -176.254 3.08625 177.652
lowerback -1.74505 1.11339 -3.52992
upperback -0.102974 1.60852 -1.34175
thorax 0.815212 0.811152 0.640159
lowerneck -12.167 -4.41814 -5.79741
upperneck 20.1994 -8.32847 10.3703
head 9.00806 -3.74009 3.46718
rclavicle 3.01904e-015 -6.55989e-015
rhumerus 3.68836 5.8994 -33.6321
rradius 110.506
rwrist 7.99366
rhand -26.6142 51.0493
rfingers 7.12502
rthumb -0.0474515 21.0696
lclavicle 3.01904e-015 -6.55989e-015
lhumerus 12.4437 -9.67194 30.9689
lradius 109.515
lwrist -3.92365
lhand -29.7349 12.0061
lfingers 7.12502
lthumb -3.06145 41.9638
rfemur -1.52301 13.5241 12.6166
rtibia 13.4776
rfoot -8.5924 -17.9901
rtoes 5.77409
lfemur 2.50956 -4.03924 -19.3653
ltibia 5.35763
lfoot -9.51236 9.39668
ltoes -11.9177
806
root 8.58162 18.838 9.55862 -176.27 3.26312 177.664
lowerback -1.64966 1.15918 -3.46009
upperback -0.110778 1.66656 -1.42437
thorax 0.756088 0.842502 0.515457
lowerneck -12.5761 -4.36765 -5.62789
upperneck 20.5298 -8.32301 10.3366
head 9.18988 -3.71313 3.42196
rclavicle -7.90169e-015 -1.74931e-014
rhumerus 3.79574 6.2941 -32.7285
rradius 110.612
rwrist 5.50367
rhand -27.0175 51.1313
rfingers 7.12502
rthumb -0.43695 21.152
lclavicle -7.90169e-015 -1.74931e-014
lhumerus 12.4687 -10.084 29.5126
lradius 109.883
lwrist -1.91951
lhand -29.3961 12.2371
lfingers 7.12502
lthumb -2.73428 42.1994
rfemur -1.46326 13.6913 12.6375
rtibia 13.326
rfoot -8.375 -17.9883
rtoes 5.12994
lfemur 2.57828 -3.86847 -19.3631
ltibia 5.31112
lfoot -9.38257 9.43483
ltoes -12.6483
807
root 8.578 18.8367 9.55528 -176.111 3.18253 177.848
lowerback -1.8232 1.13147 -3.17581
upperback -0.0635397 1.63031 -1.40657
thorax 0.910238 0.82162 0.37906
lowerneck -12.932 -4.39284 -5.43766
upperneck 20.6615 -8.30499 10.0365
head 9.27917 -3.69578 3.28351
rclavicle 2.16551e-014 -1.78906e-014
rhumerus 3.98372 6.62562 -31.5354
rradius 110.705
rwrist 3.31643
rhand -26.4192 51.6837
rfingers 7.12502
rthumb 0.140829 21.704
lclavicle 2.16551e-014 -1.78906e-014
lhumerus 12.5467 -10.4131 28.1239
lradius 110.047
lwrist -0.787895
lhand -29.6451 12.6514
lfingers 7.12502
lthumb -2.9747 42.6104
rfemur -1.47415 13.6079 12.8214
rtibia 13.0784
rfoot -8.07692 -18.062
rtoes 3.91592
lfemur 2.31851 -3.94108 -19.1562
ltibia 5.54568
lfoot -9.40382 9.35515
ltoes -12.289
808
root 8.57143 18.8418 9.55014 -175.849 3.00554 177.987
lowerback -2.06837 1.04592 -2.95074
upperback -0.098975 1.51777 -1.36155
thorax 1.01908 0.764135 0.301717
lowerneck -13.1458 -4.36099 -5.36429
upperneck 20.7872 -8.20671 9.79555
head 9.33986 -3.65246 3.19829
rclavicle -5.15598e-015 -1.47101e-014
rhumerus 4.07587 7.13196 -29.9434
rradius 110.851
rwrist 1.68221
rhand -25.82 51.9364
rfingers 7.12502
rthumb 0.719601 21.9579
lclavicle -5.15598e-015 -1.47101e-014
lhumerus 12.3504 -10.735 26.8752
lradius 110.229
lwrist -0.291997
lhand -30.1679 12.9449
lfingers 7.12502
lthumb -3.4796 42.8962
rfemur -1.55175 13.6286 12.9242
rtibia 12.7751
rfoot -7.91273 -18.2309
rtoes 3.76306
lfemur 1.8712 -4.10982 -18.9961
ltibia 5.91933
lfoot -9.79274 9.19323
ltoes -10.7015
809
root 8.56843 18.8447 9.54814 -175.661 2.93428 177.879
lowerback -2.11842 0.976996 -2.99898
upperback -0.293865 1.4289 -1.41539
thorax 0.849939 0.72524 0.26979
lowerneck -12.8179 -4.27621 -5.33621
upperneck 20.6833 -8.10018 9.78229
head 9.23058 -3.61892 3.20786
rclavicle 1.52816e-014 -1.98785e-014
rhumerus 4.04937 7.88141 -28.4742
rradius 110.916
rwrist 1.00564
rhand -26.0109 51.6697
rfingers 7.12502
rthumb 0.535222 21.6906
lclavicle 1.52816e-014 -1.98785e-014
lhumerus 11.7947 -11.1676 25.6327
lradius 110.739
lwrist 0.114965
lhand -30.8024 12.7497
lfingers 7.12502
lthumb -4.09235 42.6902
rfemur -1.62992 13.69 12.749
rtibia 12.5533
rfoot -7.74473 -18.2648
rtoes 4.16826
lfemur 1.57968 -4.19166 -19.1189
ltibia 6.10685
lfoot -10.0492 9.13046
ltoes -10.0232
810
root 8.56912 18.8472 9.54784 -175.582 3.0011 177.782
lowerback -2.05779 0.952275 -3.12699
upperback -0.39962 1.39562 -1.42092
thorax 0.705567 0.711996 0.332257
lowerneck -12.5623 -4.23017 -5.39688
upperneck 20.4932 -8.01173 9.8137
head 9.11277 -3.58949 3.24388
rclavicle -1.6027e-015 5.56597e-015
rhumerus 4.12041 8.43538 -27.1038
rradius 110.945
rwrist 1.0794
rhand -26.542 51.5669
rfingers 7.12502
rthumb 0.0222843 21.5871
lclavicle -1.6027e-015 5.56597e-015
lhumerus 11.2224 -11.3385 24.4246
lradius 111.366
lwrist 0.302512
lhand -31.3534 12.0447
lfingers 7.12502
lthumb -4.6244 41.9742
rfemur -1.73584 13.785 12.5977
rtibia 12.5643
rfoot -7.84957 -18.2109
rtoes 4.94576
lfemur 1.62449 -4.13744 -19.2262
ltibia 5.85887
lfoot -10.0143 9.29624
ltoes -11.3919
811
root 8.56926 18.8492 9.54626 -175.491 3.07072 177.744
lowerback -2.16117 0.939032 -3.28611
upperback -0.356537 1.38403 -1.32851
thorax 0.801932 0.703007 0.518016
lowerneck -12.5481 -4.23614 -5.52603
upperneck 20.2725 -7.92652 9.78413
head 9.03045 -3.55437 3.26634
rclavicle 2.2649e-014 -1.86858e-014
rhumerus 4.18246 8.67352 -25.5604
rradius 111.128
rwrist 1.0735
rhand -26.5284 51.5382
rfingers 7.12502
rthumb 0.0353866 21.5584
lclavicle 2.2649e-014 -1.86858e-014
lhumerus 10.837 -11.2692 23.3399
lradius 111.877
lwrist -0.0544331
lhand -31.6484 11.8038
lfingers 7.12502
lthumb -4.90928 41.7269
rfemur -1.94444 13.8679 12.5115
rtibia 12.7485
rfoot -8.13351 -18.2102
rtoes 5.26526
lfemur 1.79762 -4.07586 -19.2604
ltibia 5.31874
lfoot -9.79654 9.52619
ltoes -13.1121
812
root 8.56939 18.8539 9.54526 -175.437 3.08685 177.572
lowerback -2.13602 0.882155 -3.46989
upperback -0.344405 1.31434 -1.35761
thorax 0.799243 0.668682 0.588681
lowerneck -12.6381 -4.22895 -5.52073
upperneck 20.1095 -7.86488 9.76481
head 8.98519 -3.51763 3.26471
rclavicle 7.3923e-015 -8.74653e-015
rhumerus 4.35138 8.92592 -24.1997
rradius 111.324
rwrist 0.465333
rhand -25.7159 51.0638
rfingers 7.12502
rthumb 0.820107 21.0856
lclavicle 7.3923e-015 -8.74653e-015
lhumerus 10.3278 -11.2813 22.1994
lradius 112.469
lwrist -0.376968
lhand -31.7055 12.3065
lfingers 7.12502
lthumb -4.96437 42.2283
rfemur -2.11287 13.8034 12.3027
rtibia 12.9353
rfoot -8.23933 -18.1789
rtoes 4.93759
lfemur 1.94956 -4.07882 -19.4322
ltibia 4.85765
lfoot -9.46908 9.57291
ltoes -13.2705
813
root 8.56864 18.8562 9.54548 -175.449 3.09209 177.394
lowerback -1.82275 0.860598 -3.49211
upperback -0.412262 1.27689 -1.521
thorax 0.558838 0.657022 0.42627
lowerneck -12.7621 -5.33538 -5.16062
upperneck 20.1882 -7.62474 9.4808
head 9.00423 -2.68742 3.24386
rclavicle -5.28022e-015 -2.34566e-014
rhumerus 4.18778 9.28351 -23.0435
rradius 111.622
rwrist -0.237679
rhand -24.9529 50.1923
rfingers 7.12502
rthumb 1.55705 20.2183
lclavicle -5.28022e-015 -2.34566e-014
lhumerus 9.77249 -11.4651 20.9416
lradius 113.078
lwrist -0.358286
lhand -32.3098 12.7312
lfingers 7.12502
lthumb -5.54787 42.6386
rfemur -2.17604 13.6534 12.1036
rtibia 13.0743
rfoot -8.2307 -18.0452
rtoes 4.97469
lfemur 2.03902 -4.09384 -19.6195
ltibia 4.6578
lfoot -9.32421 9.55402
ltoes -12.6583
814
root 8.56081 18.8525 9.5494 -175.438 2.83894 177.448
lowerback -1.59424 0.804034 -3.29102
upperback -0.400415 1.1856 -1.53463
thorax 0.450199 0.612196 0.294359
lowerneck -12.5914 -4.38509 -5.40943
upperneck 19.4989 -7.99432 9.7909
head 8.7774 -3.5606 3.23673
rclavicle -9.42985e-015 1.19271e-015
rhumerus 3.71289 9.55327 -21.6663
rradius 112.111
rwrist -0.722205
rhand -24.5913 49.3078
rfingers 7.12502
rthumb 1.90632 19.3366
lclavicle -9.42985e-015 1.19271e-015
lhumerus 9.30622 -11.477 19.9662
lradius 113.552
lwrist -0.432961
lhand -33.7061 12.646
lfingers 7.12502
lthumb -6.89589 42.5137
rfemur -2.2235 13.2956 12.1811
rtibia 13.2227
rfoot -7.97553 -18.1022
rtoes 3.78005
lfemur 2.00447 -4.34787 -19.5688
ltibia 4.60149
lfoot -9.19521 9.60615
ltoes -13.2282
815
root 8.54518 18.8511 9.55652 -175.367 2.23364 177.559
lowerback -1.50655 0.635113 -2.99633
upperback -0.298112 0.948518 -1.47342
thorax 0.516373 0.489863 0.18779
lowerneck -12.4643 -4.54221 -5.43176
upperneck 19.0619 -8.10001 9.68992
head 8.61168 -3.61707 3.19428
rclavicle 1.32192e-014 -1.27222e-014
rhumerus 3.34933 9.68479 -20.157
rradius 112.601
rwrist -1.3702
rhand -24.5688 48.4627
rfingers 7.12502
rthumb 1.92799 18.4917
lclavicle 1.32192e-014 -1.27222e-014
lhumerus 8.80332 -11.1505 19.3434
lradius 114.214
lwrist -0.0435377
lhand -34.314 12.2184
lfingers 7.12502
lthumb -7.48264 42.066
rfemur -2.24058 12.8273 12.3255
rtibia 13.2828
rfoot -7.8647 -18.3847
rtoes 2.45519
lfemur 1.59691 -4.94809 -19.4447
ltibia 5.02046
lfoot -9.20123 9.61751
ltoes -14.6028
816
root 8.55256 18.8493 9.56397 -175.454 2.4241 177.647
lowerback -1.15935 0.712603 -2.96806
upperback -0.298798 1.0347 -1.46146
thorax 0.319136 0.534482 0.180577
lowerneck -12.1415 -4.62955 -5.4824
upperneck 18.702 -8.18351 9.74289
head 8.44272 -3.66711 3.21542
rclavicle 4.84538e-016 -6.36111e-015
rhumerus 2.88863 9.97261 -18.8324
rradius 113.119
rwrist -2.5048
rhand -24.2732 47.6093
rfingers 7.12502
rthumb 2.21355 17.641
lclavicle 4.84538e-016 -6.36111e-015
lhumerus 8.01584 -10.8997 18.6753
lradius 115.131
lwrist 0.578042
lhand -34.2039 12.4794
lfingers 7.12502
lthumb -7.37641 42.3308
rfemur -2.21256 12.9899 12.4293
rtibia 13.2639
rfoot -7.80885 -18.3358
rtoes 2.18061
lfemur 1.29001 -4.75882 -19.3513
ltibia 5.78409
lfoot -9.50261 9.45498
ltoes -14.6649
817
root 8.54574 18.8524 9.56527 -175.287 2.18157 177.778
lowerback -1.05037 0.590121 -2.66844
upperback -0.377312 0.859729 -1.46117
thorax 0.186276 0.448303 0.00917053
lowerneck -11.9108 -5.52831 -5.44057
upperneck 18.5347 -7.87024 9.69203
head 8.3273 -2.91393 3.31923
rclavicle 1.73937e-016 7.35503e-015
rhumerus 2.5188 10.325 -17.5866
rradius 113.642
rwrist -4.06144
rhand -23.6365 47.0485
rfingers 7.12502
rthumb 2.8284 17.0875
lclavicle 1.73937e-016 7.35503e-015
lhumerus 6.93608 -10.5413 18.0053
lradius 116.072
lwrist 1.17352
lhand -34.2288 13.0045
lfingers 7.12502
lthumb -7.4004 42.8551
rfemur -2.38862 12.6599 12.5423
rtibia 13.3052
rfoot -7.63576 -18.2189
rtoes 2.45991
lfemur 0.689605 -4.99425 -19.1637
ltibia 6.51284
lfoot -9.7705 9.30566
ltoes -13.9212
818
root 8.5651 18.8529 9.56971 -175.126 3.06015 178.001
lowerback -1.02842 0.832235 -2.78798
upperback -0.377872 1.17703 -1.31345
thorax 0.161532 0.604985 0.230181
lowerneck -12.0783 -5.46971 -5.63417
upperneck 18.3433 -7.78553 9.85772
head 8.30173 -2.88149 3.41115
rclavicle 1.7667e-014 -1.55052e-014
rhumerus 2.22406 10.4804 -16.4208
rradius 114.13
rwrist -5.57499
rhand -23.0284 46.9692
rfingers 7.12502
rthumb 3.41569 17.0168
lclavicle 1.7667e-014 -1.55052e-014
lhumerus 5.78723 -9.84814 17.5816
lradius 116.958
lwrist 2.20637
lhand -34.2478 12.3844
lfingers 7.12502
lthumb -7.41878 42.2343
rfemur -2.77301 13.169 12.679
rtibia 13.3022
rfoot -7.66928 -17.7582
rtoes 3.37889
lfemur 0.13291 -4.10272 -18.8797
ltibia 7.43982
lfoot -10.3154 9.26911
ltoes -13.8054
